<?xml version="1.0" encoding="UTF-8" standalone="no"?>
<svg
   id="logo-46"
   class="gradient"
   width="128"
   height="62"
   viewBox="0 0 128 61.999999"
   fill="none"
   version="1.1"
   sodipodi:docname="logotipo.svg"
   inkscape:version="1.4 (e7c3feb100, 2024-10-09)"
   xmlns:inkscape="http://www.inkscape.org/namespaces/inkscape"
   xmlns:sodipodi="http://sodipodi.sourceforge.net/DTD/sodipodi-0.dtd"
   xmlns="http://www.w3.org/2000/svg"
   xmlns:svg="http://www.w3.org/2000/svg">
  <sodipodi:namedview
     id="namedview27"
     pagecolor="#505050"
     bordercolor="#ffffff"
     borderopacity="1"
     inkscape:showpageshadow="0"
     inkscape:pageopacity="0"
     inkscape:pagecheckerboard="1"
     inkscape:deskcolor="#d1d1d1"
     inkscape:zoom="4.7063173"
     inkscape:cx="93.278879"
     inkscape:cy="38.140225"
     inkscape:window-width="2560"
     inkscape:window-height="1011"
     inkscape:window-x="0"
     inkscape:window-y="0"
     inkscape:window-maximized="1"
     inkscape:current-layer="logo-46" />
  <path
     d="M 0,15.178391 C 7.3284753e-7,6.7955941 6.7955973,-7.3284401e-7 15.178394,0 c 4.544829,3.9732863e-7 8.623211,1.9975159 11.404939,5.1625038 5.047182,5.6664922 9.220716,5.3683682 13.652912,1.1851498 2.174698,-2.0532806 5.107687,-3.3119775 8.334613,-3.3119775 6.706232,1.04e-5 12.142713,5.4364814 12.142713,12.1427149 0,6.706232 -5.436481,12.142713 -12.142713,12.142713 -3.226926,0 -6.159915,-1.258759 -8.334613,-3.312029 -4.431148,-4.182223 -8.603741,-4.48129 -13.649248,1.180984 -2.781833,3.167468 -6.861785,5.166725 -11.408603,5.166725 C 6.7955973,30.356784 -7.3284507e-7,23.561155 0,15.178391 Z"
     fill="#f2f5fa"
     data-darkreader-inline-fill=""
     id="path10"
     style="stroke-width:1.04679" />
  <path
     d="M 0,15.178391 C 7.3284753e-7,6.7955941 6.7955973,-7.3284401e-7 15.178394,0 c 4.544829,3.9732863e-7 8.623211,1.9975159 11.404939,5.1625038 5.047182,5.6664922 9.220716,5.3683682 13.652912,1.1851498 2.174698,-2.0532806 5.107687,-3.3119775 8.334613,-3.3119775 6.706232,1.04e-5 12.142713,5.4364814 12.142713,12.1427149 0,6.706232 -5.436481,12.142713 -12.142713,12.142713 -3.226926,0 -6.159915,-1.258759 -8.334613,-3.312029 -4.431148,-4.182223 -8.603741,-4.48129 -13.649248,1.180984 -2.781833,3.167468 -6.861785,5.166725 -11.408603,5.166725 C 6.7955973,30.356784 -7.3284507e-7,23.561155 0,15.178391 Z"
     fill="url(#paint0_linear_1422_596)"
     id="path11"
     style="fill:url(#paint0_linear_1422_596);stroke-width:1.04679" />
  <path
     d="M 0,15.178391 C 7.3284753e-7,6.7955941 6.7955973,-7.3284401e-7 15.178394,0 c 4.544829,3.9732863e-7 8.623211,1.9975159 11.404939,5.1625038 5.047182,5.6664922 9.220716,5.3683682 13.652912,1.1851498 2.174698,-2.0532806 5.107687,-3.3119775 8.334613,-3.3119775 6.706232,1.04e-5 12.142713,5.4364814 12.142713,12.1427149 0,6.706232 -5.436481,12.142713 -12.142713,12.142713 -3.226926,0 -6.159915,-1.258759 -8.334613,-3.312029 -4.431148,-4.182223 -8.603741,-4.48129 -13.649248,1.180984 -2.781833,3.167468 -6.861785,5.166725 -11.408603,5.166725 C 6.7955973,30.356784 -7.3284507e-7,23.561155 0,15.178391 Z"
     fill="url(#paint1_linear_1422_596)"
     id="path12"
     style="fill:url(#paint1_linear_1422_596);stroke-width:1.04679" />
  <path
     d="M 0,15.178391 C 7.3284753e-7,6.7955941 6.7955973,-7.3284401e-7 15.178394,0 c 4.544829,3.9732863e-7 8.623211,1.9975159 11.404939,5.1625038 5.047182,5.6664922 9.220716,5.3683682 13.652912,1.1851498 2.174698,-2.0532806 5.107687,-3.3119775 8.334613,-3.3119775 6.706232,1.04e-5 12.142713,5.4364814 12.142713,12.1427149 0,6.706232 -5.436481,12.142713 -12.142713,12.142713 -3.226926,0 -6.159915,-1.258759 -8.334613,-3.312029 -4.431148,-4.182223 -8.603741,-4.48129 -13.649248,1.180984 -2.781833,3.167468 -6.861785,5.166725 -11.408603,5.166725 C 6.7955973,30.356784 -7.3284507e-7,23.561155 0,15.178391 Z"
     fill="url(#paint2_radial_1422_596)"
     id="path13"
     style="fill:url(#paint2_radial_1422_596);stroke-width:1.04679" />
  <path
     d="M 0,15.178391 C 7.3284753e-7,6.7955941 6.7955973,-7.3284401e-7 15.178394,0 c 4.544829,3.9732863e-7 8.623211,1.9975159 11.404939,5.1625038 5.047182,5.6664922 9.220716,5.3683682 13.652912,1.1851498 2.174698,-2.0532806 5.107687,-3.3119775 8.334613,-3.3119775 6.706232,1.04e-5 12.142713,5.4364814 12.142713,12.1427149 0,6.706232 -5.436481,12.142713 -12.142713,12.142713 -3.226926,0 -6.159915,-1.258759 -8.334613,-3.312029 -4.431148,-4.182223 -8.603741,-4.48129 -13.649248,1.180984 -2.781833,3.167468 -6.861785,5.166725 -11.408603,5.166725 C 6.7955973,30.356784 -7.3284507e-7,23.561155 0,15.178391 Z"
     fill="url(#paint3_radial_1422_596)"
     id="path14"
     style="fill:url(#paint3_radial_1422_596);stroke-width:1.04679" />
  <path
     d="M 0,15.178391 C 7.3284753e-7,6.7955941 6.7955973,-7.3284401e-7 15.178394,0 c 4.544829,3.9732863e-7 8.623211,1.9975159 11.404939,5.1625038 5.047182,5.6664922 9.220716,5.3683682 13.652912,1.1851498 2.174698,-2.0532806 5.107687,-3.3119775 8.334613,-3.3119775 6.706232,1.04e-5 12.142713,5.4364814 12.142713,12.1427149 0,6.706232 -5.436481,12.142713 -12.142713,12.142713 -3.226926,0 -6.159915,-1.258759 -8.334613,-3.312029 -4.431148,-4.182223 -8.603741,-4.48129 -13.649248,1.180984 -2.781833,3.167468 -6.861785,5.166725 -11.408603,5.166725 C 6.7955973,30.356784 -7.3284507e-7,23.561155 0,15.178391 Z"
     fill="url(#paint4_radial_1422_596)"
     id="path15"
     style="fill:#e6e6e6;stroke-width:1.04679" />
  <defs
     id="defs27">
    <linearGradient
       id="paint0_linear_1422_596"
       x1="43.696098"
       y1="21.7069"
       x2="10.3036"
       y2="-4.2432799"
       gradientUnits="userSpaceOnUse"
       gradientTransform="scale(1.0467857)">
      <stop
         class="ccustom"
         stop-color="#007dfc"
         style="--darkreader-inline-stopcolor: #0465c8; --darkreader-inline-fill: #37a3fb;"
         data-darkreader-inline-stopcolor=""
         fill="#007dfc"
         data-darkreader-inline-fill=""
         id="stop15" />
      <stop
         class="ccompli1"
         offset="0.841052"
         stop-color="#fc007d"
         stop-opacity="0"
         style="--darkreader-inline-stopcolor: #c80465; --darkreader-inline-fill: #fb1f8c;"
         data-darkreader-inline-stopcolor=""
         fill="#fc007d"
         data-darkreader-inline-fill=""
         id="stop16" />
    </linearGradient>
    <linearGradient
       id="paint1_linear_1422_596"
       x1="14.5023"
       y1="27.0553"
       x2="23.4238"
       y2="-3.8499701"
       gradientUnits="userSpaceOnUse"
       gradientTransform="scale(1.0467857)">
      <stop
         class="ccompli1"
         stop-color="#fc007d"
         style="--darkreader-inline-stopcolor: #c80465; --darkreader-inline-fill: #fb1f8c;"
         data-darkreader-inline-stopcolor=""
         fill="#fc007d"
         data-darkreader-inline-fill=""
         id="stop17" />
      <stop
         class="ccompli1"
         offset="1"
         stop-color="#fc007d"
         stop-opacity="0"
         style="--darkreader-inline-stopcolor: #c80465; --darkreader-inline-fill: #fb1f8c;"
         data-darkreader-inline-stopcolor=""
         fill="#fc007d"
         data-darkreader-inline-fill=""
         id="stop18" />
    </linearGradient>
    <radialGradient
       id="paint2_radial_1422_596"
       cx="0"
       cy="0"
       r="1"
       gradientUnits="userSpaceOnUse"
       gradientTransform="matrix(-21.082639,-32.553903,26.656841,-17.263568,47.616086,36.680416)">
      <stop
         class="ccompli2"
         stop-color="#7dfc00"
         style="--darkreader-inline-stopcolor: #65c804; --darkreader-inline-fill: #8cfb1f;"
         data-darkreader-inline-stopcolor=""
         fill="#7dfc00"
         data-darkreader-inline-fill=""
         id="stop19" />
      <stop
         offset="0.568731"
         stop-color="#8172DA"
         stop-opacity="0.26"
         style="--darkreader-inline-stopcolor: #30247d;"
         data-darkreader-inline-stopcolor=""
         id="stop20" />
      <stop
         class="ccompli2"
         offset="1"
         stop-color="#7dfc00"
         stop-opacity="0"
         style="--darkreader-inline-stopcolor: #65c804; --darkreader-inline-fill: #8cfb1f;"
         data-darkreader-inline-stopcolor=""
         fill="#7dfc00"
         data-darkreader-inline-fill=""
         id="stop21" />
    </radialGradient>
    <radialGradient
       id="paint3_radial_1422_596"
       cx="0"
       cy="0"
       r="1"
       gradientUnits="userSpaceOnUse"
       gradientTransform="matrix(5.5766329,25.52217,-40.115193,8.7652305,19.158378,-4.3913)">
      <stop
         class="ccompli1"
         stop-color="#fc007d"
         style="--darkreader-inline-stopcolor: #c80465; --darkreader-inline-fill: #fb1f8c;"
         data-darkreader-inline-stopcolor=""
         fill="#fc007d"
         data-darkreader-inline-fill=""
         id="stop22" />
      <stop
         class="ccompli1"
         offset="0.492704"
         stop-color="#fc007d"
         stop-opacity="0.35"
         style="--darkreader-inline-stopcolor: #c80465; --darkreader-inline-fill: #fb1f8c;"
         data-darkreader-inline-stopcolor=""
         fill="#fc007d"
         data-darkreader-inline-fill=""
         id="stop23" />
      <stop
         class="ccompli1"
         offset="1"
         stop-color="#fc007d"
         stop-opacity="0"
         style="--darkreader-inline-stopcolor: #c80465; --darkreader-inline-fill: #fb1f8c;"
         data-darkreader-inline-stopcolor=""
         fill="#fc007d"
         data-darkreader-inline-fill=""
         id="stop24" />
    </radialGradient>
    <radialGradient
       id="paint4_radial_1422_596"
       cx="1.1038909"
       cy="0.44465807"
       r="1"
       gradientUnits="userSpaceOnUse"
       gradientTransform="matrix(-16.324238,23.215843,-49.173444,-34.576346,62.435117,-11.247297)"
       fx="1.1038909"
       fy="0.44465807">
      <stop
         class="ccompli2"
         stop-color="#7dfc00"
         style="stop-color:#dd444d;stop-opacity:1;"
         data-darkreader-inline-stopcolor=""
         fill="#7dfc00"
         data-darkreader-inline-fill=""
         id="stop25"
         offset="0" />
      <stop
         class="ccompli2"
         offset="0.549191"
         stop-color="#7dfc00"
         stop-opacity="0.3"
         style="--darkreader-inline-stopcolor: #65c804; --darkreader-inline-fill: #8cfb1f;"
         data-darkreader-inline-stopcolor=""
         fill="#7dfc00"
         data-darkreader-inline-fill=""
         id="stop26" />
      <stop
         class="ccompli2"
         offset="0.961144"
         stop-color="#7dfc00"
         stop-opacity="0"
         style="--darkreader-inline-stopcolor: #65c804; --darkreader-inline-fill: #8cfb1f;"
         data-darkreader-inline-stopcolor=""
         fill="#7dfc00"
         data-darkreader-inline-fill=""
         id="stop27" />
    </radialGradient>
  </defs>
  <path
     style="font-weight:bold;font-size:56px;line-height:1.1;font-family:'SF Pro Display';-inkscape-font-specification:'SF Pro Display, Bold';letter-spacing:0px;fill:#f9f9f9;fill-opacity:1;stroke-width:0.791785;stroke-linecap:round;stroke-linejoin:round;paint-order:markers stroke fill"
     d="M 15.348942,51.380465 H 5.1028758 V 32.008744 H 0.19905372 V 55.439922 H 15.348942 Z m 7.870705,4.432929 c 5.261055,0 8.622284,-3.361231 8.622284,-9.093181 0,-5.650764 -3.409943,-9.060706 -8.622284,-9.060706 -5.212341,0 -8.622283,3.42618 -8.622283,9.060706 0,5.715715 3.36123,9.093181 8.622283,9.093181 z m 0,-3.621037 c -2.338246,0 -3.815889,-1.964774 -3.815889,-5.455908 0,-3.458658 1.510118,-5.455909 3.815889,-5.455909 2.30577,0 3.79965,1.997251 3.79965,5.455909 0,3.491134 -1.477642,5.455908 -3.79965,5.455908 z m 19.095679,-0.454662 c -2.354484,0 -3.815889,-1.851107 -3.815889,-5.033723 0,-3.166375 1.477644,-5.147388 3.815889,-5.147388 2.370723,0 3.88084,2.01349 3.88084,5.147388 0,3.150139 -1.510117,5.033723 -3.88084,5.033723 z M 42.234136,62 c 5.212341,0 8.687234,-2.646765 8.687234,-6.803647 V 38.032976 h -4.676493 v 3.036473 h -0.08119 c -0.909318,-1.997253 -2.874094,-3.312516 -5.374719,-3.312516 -4.416687,0 -7.144642,3.393706 -7.144642,8.914563 0,5.439671 2.809144,8.719713 7.063453,8.719713 2.516863,0 4.562829,-1.266548 5.37472,-3.117661 h 0.09742 v 3.052707 c 0,2.013493 -1.363978,3.377467 -3.815888,3.377467 -1.802399,0 -3.166377,-0.828127 -3.539846,-2.029728 H 34.180168 C 34.553637,59.77542 37.655061,62 42.234128,62 Z m 18.573748,-6.186606 c 5.261056,0 8.622282,-3.361231 8.622282,-9.093181 0,-5.650764 -3.409937,-9.060706 -8.622282,-9.060706 -5.21234,0 -8.622284,3.42618 -8.622284,9.060706 0,5.715715 3.361232,9.093181 8.622284,9.093181 z m 0,-3.621037 c -2.338248,0 -3.815888,-1.964774 -3.815888,-5.455908 0,-3.458658 1.510118,-5.455909 3.815888,-5.455909 2.305774,0 3.79965,1.997251 3.79965,5.455909 0,3.491134 -1.47764,5.455908 -3.79965,5.455908 z m 12.32451,-18.170123 v 4.010742 h -2.451913 v 3.572321 h 2.451913 v 9.141897 c 0,3.393702 1.591309,4.757677 5.683237,4.757677 0.958031,0 1.769924,-0.08119 2.257056,-0.194851 v -3.491135 c -0.292276,0.0487 -0.730703,0.08119 -1.152881,0.08119 -1.396457,0 -2.04597,-0.633273 -2.04597,-1.964776 v -8.330003 h 3.215093 V 38.03298 h -3.215093 v -4.010742 z m 10.635777,21.417688 h 4.741441 V 38.032976 h -4.741441 z m 2.370717,-19.323009 c 1.428929,0 2.533103,-1.087935 2.533103,-2.451911 0,-1.380215 -1.104174,-2.451912 -2.533103,-2.451912 -1.428929,0 -2.533097,1.071697 -2.533097,2.451912 0,1.363976 1.104168,2.451911 2.533097,2.451911 z m 15.685752,1.64002 c -2.516878,0 -4.449175,1.26655 -5.390971,3.312516 h -0.09742 v -3.036473 h -4.676493 v 23.090183 h 4.741441 v -8.606048 h 0.09743 c 0.925553,1.964779 2.874093,3.198853 5.407193,3.198853 4.35174,0 7.04722,-3.377469 7.04722,-8.979515 0,-5.618287 -2.71171,-8.979516 -7.1284,-8.979516 z m -1.59131,14.143143 c -2.322019,0 -3.848373,-2.013488 -3.848373,-5.163627 0,-3.117661 1.526354,-5.179865 3.848373,-5.179865 2.37072,0 3.8646,2.029726 3.8646,5.179865 0,3.166375 -1.49388,5.163627 -3.8646,5.163627 z m 19.14439,3.913318 c 5.26105,0 8.62228,-3.361231 8.62228,-9.093181 0,-5.650764 -3.40994,-9.060706 -8.62228,-9.060706 -5.21234,0 -8.62228,3.42618 -8.62228,9.060706 0,5.715715 3.36122,9.093181 8.62228,9.093181 z m 0,-3.621037 c -2.33825,0 -3.81589,-1.964774 -3.81589,-5.455908 0,-3.458658 1.51011,-5.455909 3.81589,-5.455909 2.30576,0 3.79965,1.997251 3.79965,5.455909 0,3.491134 -1.47764,5.455908 -3.79965,5.455908 z"
     id="text27"
     aria-label="Logotipo"
     sodipodi:nodetypes="cccccccsssssssssssssssssccccsssccssccssssssssssscccccssccsscccccccccccssssssccccccccssssssssssssssssss" />
</svg>
